<svg xmlns="http://www.w3.org/2000/svg" viewBox="0 0 54.33 59.93"><defs><style>.cls-1{fill:#333;}.cls-2{fill:#262626;}.cls-3{fill:#404041;}</style></defs><title>EF600 Endcaps_Source</title><g id="Rulers"><path class="cls-1" d="M18.39,2.32,12.13,5.93a.4.4,0,0,0-.19.33V44.19a.4.4,0,0,0,.19.33l6.26,3.61a.37.37,0,0,0,.38,0L25,44.52a.37.37,0,0,0,.19-.33V6.26A.37.37,0,0,0,25,5.93L18.77,2.32A.37.37,0,0,0,18.39,2.32Z"/><path class="cls-2" d="M16.58,45.85a.32.32,0,0,1-.16,0L14.1,44.47a.74.74,0,0,1-.3-.57V42.84c0-.22.13-.33.26-.33a.3.3,0,0,1,.15.05l2.32,1.34a.69.69,0,0,1,.3.56v1.07C16.83,45.75,16.7,45.85,16.58,45.85Z"/><path class="cls-3" d="M14.06,42.62l.1,0L16.48,44a.6.6,0,0,1,.24.47v1.07c0,.13-.06.21-.14.21a.13.13,0,0,1-.1,0l-2.32-1.33a.59.59,0,0,1-.25-.48V42.84c0-.14.06-.22.15-.22m0-.21h0a.38.38,0,0,0-.37.43V43.9a.81.81,0,0,0,.36.66l2.32,1.34a.42.42,0,0,0,.21.06.38.38,0,0,0,.36-.43V44.46a.81.81,0,0,0-.35-.66l-2.32-1.34a.54.54,0,0,0-.21-.05Z"/><path class="cls-1" d="M35.57,11.8l-6.26,3.61a.4.4,0,0,0-.19.33V53.67a.4.4,0,0,0,.19.33l6.26,3.61a.37.37,0,0,0,.38,0L42.2,54a.37.37,0,0,0,.19-.33V15.74a.37.37,0,0,0-.19-.33L36,11.8A.37.37,0,0,0,35.57,11.8Z"/><path class="cls-2" d="M33.76,55.33a.32.32,0,0,1-.16,0L31.28,54a.74.74,0,0,1-.3-.57V52.32c0-.23.13-.33.26-.33a.3.3,0,0,1,.15,0l2.32,1.34a.68.68,0,0,1,.3.56V55C34,55.23,33.88,55.33,33.76,55.33Z"/><path class="cls-3" d="M31.24,52.1l.1,0,2.32,1.34a.6.6,0,0,1,.24.47V55c0,.13-.06.21-.14.21a.19.19,0,0,1-.1,0l-2.32-1.33a.59.59,0,0,1-.25-.48V52.32c0-.14.06-.22.15-.22m0-.21h0a.38.38,0,0,0-.37.43v1.06a.81.81,0,0,0,.36.66l2.32,1.34a.42.42,0,0,0,.21.06.38.38,0,0,0,.36-.43V53.94a.81.81,0,0,0-.35-.66l-2.32-1.34a.41.41,0,0,0-.21,0Z"/><path class="cls-2" d="M34.6,23.06l-4.2-2.42a1.09,1.09,0,0,1-.45-.86V17.85c0-.33.2-.48.45-.34l4.2,2.43a1.05,1.05,0,0,1,.45.85v1.93C35.05,23.05,34.85,23.2,34.6,23.06Z"/></g></svg>