<svg xmlns="http://www.w3.org/2000/svg" viewBox="0 0 119.89 16.32"><defs><style>.cls-1{fill:#0067c5;}.cls-1,.cls-3,.cls-5{fill-rule:evenodd;}.cls-2,.cls-4{fill:none;stroke-linecap:round;stroke-linejoin:round;}.cls-2{stroke:#729fdc;stroke-width:0.05px;}.cls-3{fill:#d9d9d9;}.cls-4{stroke:#999;stroke-width:0.05px;}.cls-5{fill:#3475cd;}</style></defs><title>Artboard 40_Source</title><g id="Rulers"><path class="cls-1" d="M76.37,2.56v11H96.79v-11ZM24.15,4.68v6.81H65.74V4.68Zm-3,6a.84.84,0,0,0,.08-.38V5.88a.84.84,0,0,0-.08-.38H13.73v5.16Zm.19-2.75v2.37a1,1,0,0,1-1,1h-.07l-6.57-.39V5.24l6.57-.39a1.06,1.06,0,0,1,1.12,1V7.91Zm2.84-3.23V4.59a.51.51,0,0,0-.3-.46L20.47,2.58a.57.57,0,0,0-.22,0H16.63L10.27,3.67a.53.53,0,0,0-.44.51v8a.53.53,0,0,0,.44.51l6.36,1.13h3.62a.57.57,0,0,0,.22,0l3.38-1.55a.51.51,0,0,0,.3-.46Zm-21,3.4a2.51,2.51,0,0,0-.53,1.43,1.1,1.1,0,0,0,1.24,1.15c1.05,0,1-.84-.31-2.11A4.33,4.33,0,0,1,3.1,8.08Zm0,0a4.33,4.33,0,0,0,.4.47c1.3,1.27,1.36,2.11.31,2.11H9.73V5.5H3.81A1.1,1.1,0,0,0,2.57,6.65,2.51,2.51,0,0,0,3.1,8.08Z"/><path class="cls-2" d="M76.37,2.56v11H96.79v-11ZM24.15,4.68v6.81H65.74V4.68Zm-3,6a.84.84,0,0,0,.08-.38V5.88a.84.84,0,0,0-.08-.38H13.73v5.16Zm.19-2.75v2.37a1,1,0,0,1-1,1h-.07l-6.57-.39V5.24l6.57-.39a1.06,1.06,0,0,1,1.12,1V7.91Zm2.84-3.23V4.59a.51.51,0,0,0-.3-.46L20.47,2.58a.57.57,0,0,0-.22,0H16.63L10.27,3.67a.53.53,0,0,0-.44.51v8a.53.53,0,0,0,.44.51l6.36,1.13h3.62a.57.57,0,0,0,.22,0l3.38-1.55a.51.51,0,0,0,.3-.46Zm-21,3.4a2.51,2.51,0,0,0-.53,1.43,1.1,1.1,0,0,0,1.24,1.15c1.05,0,1-.84-.31-2.11A4.33,4.33,0,0,1,3.1,8.08Zm0,0a4.33,4.33,0,0,0,.4.47c1.3,1.27,1.36,2.11.31,2.11H9.73V5.5H3.81A1.1,1.1,0,0,0,2.57,6.65,2.51,2.51,0,0,0,3.1,8.08Z"/><path class="cls-3" d="M101.78,3.16h-5V13h5Zm15.54,4.92H101.78v5.39h15.54Zm0,0V2.69H101.78V8.08Z"/><path class="cls-4" d="M101.78,3.16h-5V13h5Zm15.54,4.92H101.78v5.39h15.54Zm0,0V2.69H101.78V8.08Z"/><path class="cls-5" d="M79.74,12v1.24H96.79V12ZM96.79,4.21V3H79.74V4.21ZM65.74,3V13.16l10.63.44V11.54H97.44v-.67a.53.53,0,0,1,1.06,0v2h1.31a.27.27,0,0,0,.27-.26v-9a.26.26,0,0,0-.27-.25H98.5v2a.52.52,0,0,1-.53.51h0a.52.52,0,0,1-.53-.51V4.63H76.37V2.56ZM76.37,6.25A.26.26,0,0,1,76.63,6h19.9a.26.26,0,0,1,.26.26v3.82a.26.26,0,0,1-.26.26H76.63a.26.26,0,0,1-.26-.26Z"/><path class="cls-2" d="M79.74,12v1.24H96.79V12ZM96.79,4.21V3H79.74V4.21ZM65.74,3V13.16l10.63.44V11.54H97.44v-.67a.53.53,0,0,1,1.06,0v2h1.31a.27.27,0,0,0,.27-.26v-9a.26.26,0,0,0-.27-.25H98.5v2a.52.52,0,0,1-.53.51h0a.52.52,0,0,1-.53-.51V4.63H76.37V2.56ZM76.37,6.25A.26.26,0,0,1,76.63,6h19.9a.26.26,0,0,1,.26.26v3.82a.26.26,0,0,1-.26.26H76.63a.26.26,0,0,1-.26-.26Z"/></g></svg>